<?xml version="1.0" encoding="UTF-8" standalone="no"?>
<!-- Generated by IcoMoon.io -->

<svg
   xmlns:dc="http://purl.org/dc/elements/1.1/"
   xmlns:cc="http://creativecommons.org/ns#"
   xmlns:rdf="http://www.w3.org/1999/02/22-rdf-syntax-ns#"
   xmlns:svg="http://www.w3.org/2000/svg"
   xmlns="http://www.w3.org/2000/svg"
   xmlns:sodipodi="http://sodipodi.sourceforge.net/DTD/sodipodi-0.dtd"
   xmlns:inkscape="http://www.inkscape.org/namespaces/inkscape"
   version="1.1"
   width="256"
   height="256"
   viewBox="0 0 256 256"
   id="svg2"
   inkscape:version="0.48.4 r9939"
   sodipodi:docname="developer.svg">
  <metadata
     id="metadata13">
    <rdf:RDF>
      <cc:Work
         rdf:about="">
        <dc:format>image/svg+xml</dc:format>
        <dc:type
           rdf:resource="http://purl.org/dc/dcmitype/StillImage" />
        <dc:title />
      </cc:Work>
    </rdf:RDF>
  </metadata>
  <defs
     id="defs11" />
  <sodipodi:namedview
     pagecolor="#ffffff"
     bordercolor="#666666"
     borderopacity="1"
     objecttolerance="10"
     gridtolerance="10"
     guidetolerance="10"
     inkscape:pageopacity="0"
     inkscape:pageshadow="2"
     inkscape:window-width="1600"
     inkscape:window-height="876"
     id="namedview9"
     showgrid="true"
     inkscape:zoom="2.6074562"
     inkscape:cx="138.3153"
     inkscape:cy="102.53709"
     inkscape:window-x="0"
     inkscape:window-y="24"
     inkscape:window-maximized="1"
     inkscape:current-layer="svg2"
     showguides="true"
     inkscape:guide-bbox="true">
    <inkscape:grid
       type="xygrid"
       id="grid2984"
       empspacing="5"
       visible="true"
       enabled="true"
       snapvisiblegridlinesonly="false" />
    <sodipodi:guide
       orientation="1,0"
       position="128,196"
       id="guide3067" />
    <sodipodi:guide
       orientation="0,1"
       position="112,128"
       id="guide3069" />
    <sodipodi:guide
       orientation="0,1"
       position="140,252"
       id="guide3071" />
    <sodipodi:guide
       orientation="0,1"
       position="134,90"
       id="guide3073" />
    <sodipodi:guide
       orientation="0,1"
       position="134,171"
       id="guide3075" />
    <sodipodi:guide
       orientation="1,0"
       position="47,205.27669"
       id="guide3859" />
    <sodipodi:guide
       orientation="1,0"
       position="209,190.57627"
       id="guide3861" />
    <sodipodi:guide
       orientation="0,1"
       position="140,76"
       id="guide3787" />
    <sodipodi:guide
       orientation="0.70710678,0.70710678"
       position="229,35"
       id="guide3000" />
    <sodipodi:guide
       orientation="-0.70710678,0.70710678"
       position="213,48"
       id="guide3772" />
  </sodipodi:namedview>
  <g
     id="icomoon-ignore">
    <line
       stroke-width="1"
       x1=""
       y1=""
       x2=""
       y2=""
       stroke="#449FDB"
       opacity=""
       id="line5" />
  </g>
  <path
     d="M 128,4 C 83.264935,4 47,40.264935 47,85 C 47,128.75007 81.690389,164.38885 125.0625,165.9375 L 125.0625,162.0625 C 125.0625,155.42818 130.16857,150.09375 136.5,150.09375 L 176.1875,150.09375 C 196.09281,135.33584 209,111.68251 209,85 C 209,40.264935 172.73506,4 128,4 z M 67.0625,157.78125 C 31.720118,177.61788 8,214.17835 8,256 L 115.53125,256 C 114.60803,253.39786 114.0625,250.29442 114.0625,246.9375 L 114.0625,234.53125 L 125.09375,234.53125 C 125.08439,234.33175 125.0625,234.13952 125.0625,233.9375 L 125.0625,179.84375 C 103.01711,179.17156 82.847661,171.01276 67.0625,157.78125 z M 143,158 C 137.46,158 133,162.46 133,168 L 133,228 C 133,233.54 137.46,238 143,238 L 234,238 C 239.54,238 244,233.54 244,228 L 244,168 C 244,162.46 239.54,158 234,158 L 143,158 z M 146,168 L 231,168 C 232.662,168 234,169.338 234,171 L 234,225 C 234,226.662 232.662,228 231,228 L 146,228 C 144.338,228 143,226.662 143,225 L 143,171 C 143,169.338 144.338,168 146,168 z M 194,186 L 205,216 C 206.26175,212.46709 208.0866,209.51344 210.125,207.0625 L 223.53125,220.46875 L 228.46875,215.53125 L 215.15625,202.21875 C 219.7907,198.54138 224,197 224,197 L 194,186 z M 122,242 L 122,248 C 122,252.432 125.568,256 130,256 L 248,256 C 252.432,256 256,252.432 256,248 L 256,242 L 122,242 z M 175,247 L 203,247 C 204.108,247 205,247.892 205,249 L 205,250 C 205,251.108 204.108,252 203,252 L 175,252 C 173.892,252 173,251.108 173,250 L 173,249 C 173,247.892 173.892,247 175,247 z"
     id="path7"
     inkscape:connector-curvature="0"
     style="fill:#000000" />
</svg>
