<?xml version="1.0" encoding="UTF-8" standalone="no"?>
<!-- Generated by IcoMoon.io -->

<svg
   xmlns:dc="http://purl.org/dc/elements/1.1/"
   xmlns:cc="http://creativecommons.org/ns#"
   xmlns:rdf="http://www.w3.org/1999/02/22-rdf-syntax-ns#"
   xmlns:svg="http://www.w3.org/2000/svg"
   xmlns="http://www.w3.org/2000/svg"
   xmlns:sodipodi="http://sodipodi.sourceforge.net/DTD/sodipodi-0.dtd"
   xmlns:inkscape="http://www.inkscape.org/namespaces/inkscape"
   version="1.1"
   width="256"
   height="256"
   viewBox="0 0 256 256"
   id="svg2"
   inkscape:version="0.48.4 r9939"
   sodipodi:docname="dice.svg">
  <metadata
     id="metadata13">
    <rdf:RDF>
      <cc:Work
         rdf:about="">
        <dc:format>image/svg+xml</dc:format>
        <dc:type
           rdf:resource="http://purl.org/dc/dcmitype/StillImage" />
      </cc:Work>
    </rdf:RDF>
  </metadata>
  <defs
     id="defs11" />
  <sodipodi:namedview
     pagecolor="#ffffff"
     bordercolor="#666666"
     borderopacity="1"
     objecttolerance="10"
     gridtolerance="10"
     guidetolerance="10"
     inkscape:pageopacity="0"
     inkscape:pageshadow="2"
     inkscape:window-width="1600"
     inkscape:window-height="876"
     id="namedview9"
     showgrid="true"
     inkscape:zoom="1.84375"
     inkscape:cx="149.66073"
     inkscape:cy="108.54699"
     inkscape:window-x="0"
     inkscape:window-y="24"
     inkscape:window-maximized="1"
     inkscape:current-layer="svg2" />
  <g
     id="icomoon-ignore">
    <line
       stroke-width="1"
       x1=""
       y1=""
       x2=""
       y2=""
       stroke="#449FDB"
       opacity=""
       id="line5" />
  </g>
  <path
     d="M 3,215 C 3,215 0,215 0,212 L 0,20 C 0,17 3,17 3,17 L 134,17 L 10,62.627119 C 10,62.627119 7,64 8,68 L 61,215 z M 202,2 L 17,69 L 84,254 L 232,201 L 229,172 C 228,167 232,165 232,165 L 256,150 L 202,2 z M 128,52 L 141,52 L 126,140 C 159,87 192,92 192,92 C 209,94 209,117 191,118 C 178,119 179,109 171,114 C 164,118 160,123 160,123 C 166,129 160,182 195,165 L 204,177 C 180,200 133,201 135,145 C 135,145 122,155 117,190 L 87,190 L 106,82 C 106,74 93,75 93,75 L 96,59 C 120,60 128,52 128,52 z M 238,172 L 239,190 L 252,162 z"
     id="path7"
     inkscape:connector-curvature="0"
     style="fill:#000000" />
</svg>
