<?xml version="1.0" encoding="UTF-8" standalone="no"?>
<!-- Generated by IcoMoon.io -->

<svg
   xmlns:dc="http://purl.org/dc/elements/1.1/"
   xmlns:cc="http://creativecommons.org/ns#"
   xmlns:rdf="http://www.w3.org/1999/02/22-rdf-syntax-ns#"
   xmlns:svg="http://www.w3.org/2000/svg"
   xmlns="http://www.w3.org/2000/svg"
   xmlns:sodipodi="http://sodipodi.sourceforge.net/DTD/sodipodi-0.dtd"
   xmlns:inkscape="http://www.inkscape.org/namespaces/inkscape"
   version="1.1"
   width="256"
   height="256"
   viewBox="0 0 256 256"
   id="svg2"
   inkscape:version="0.48.4 r9939"
   sodipodi:docname="dummy.svg">
  <metadata
     id="metadata13">
    <rdf:RDF>
      <cc:Work
         rdf:about="">
        <dc:format>image/svg+xml</dc:format>
        <dc:type
           rdf:resource="http://purl.org/dc/dcmitype/StillImage" />
        <dc:title></dc:title>
      </cc:Work>
    </rdf:RDF>
  </metadata>
  <defs
     id="defs11" />
  <sodipodi:namedview
     pagecolor="#ffffff"
     bordercolor="#666666"
     borderopacity="1"
     objecttolerance="10"
     gridtolerance="10"
     guidetolerance="10"
     inkscape:pageopacity="0"
     inkscape:pageshadow="2"
     inkscape:window-width="1600"
     inkscape:window-height="876"
     id="namedview9"
     showgrid="true"
     inkscape:zoom="1.84375"
     inkscape:cx="240.78931"
     inkscape:cy="140.66393"
     inkscape:window-x="0"
     inkscape:window-y="24"
     inkscape:window-maximized="1"
     inkscape:current-layer="svg2"
     showguides="true"
     inkscape:guide-bbox="true">
    <inkscape:grid
       type="xygrid"
       id="grid2984"
       empspacing="5"
       visible="true"
       enabled="true"
       snapvisiblegridlinesonly="false" />
    <sodipodi:guide
       orientation="1,0"
       position="128,196"
       id="guide3067" />
    <sodipodi:guide
       orientation="0,1"
       position="112,128"
       id="guide3069" />
    <sodipodi:guide
       orientation="0,1"
       position="140,252"
       id="guide3071" />
    <sodipodi:guide
       orientation="0,1"
       position="134,90"
       id="guide3073" />
    <sodipodi:guide
       orientation="0,1"
       position="134,171"
       id="guide3075" />
    <sodipodi:guide
       orientation="1,0"
       position="47,205.27669"
       id="guide3859" />
    <sodipodi:guide
       orientation="1,0"
       position="209,190.57627"
       id="guide3861" />
    <sodipodi:guide
       orientation="0,1"
       position="140,76"
       id="guide3787" />
  </sodipodi:namedview>
  <g
     id="icomoon-ignore">
    <line
       stroke-width="1"
       x1=""
       y1=""
       x2=""
       y2=""
       stroke="#449FDB"
       opacity=""
       id="line5" />
  </g>
  <path
     d="M 128,4 C 83.264935,4 47,40.264935 47,85 C 47,119.15423 68.154478,148.33974 98.0625,160.25 L 98.0625,151.5625 C 98.0625,149.63458 99.535723,148.09375 101.375,148.09375 L 178.78125,148.09375 C 197.20854,133.24635 209,110.50682 209,85 C 209,40.264935 172.73506,4 128,4 z M 109,156 C 107.338,156 106,157.338 106,159 L 106,252 C 106,253.662 107.338,255 109,255 L 252,255 C 253.662,255 255,253.662 255,252 L 255,159 C 255,157.338 253.662,156 252,156 L 109,156 z M 67.0625,157.78125 C 31.720118,177.61788 8,214.17835 8,256 L 98.0625,256 L 98.0625,175.09375 C 86.60383,171.29269 76.11462,165.36896 67.0625,157.78125 z M 112,162 L 142,162 L 142,190 L 112,190 L 112,162 z M 144,162 L 180,162 L 180,188.90625 L 179.375,190 L 144,190 L 144,162 z M 182,162 L 218,162 L 218,190 L 198.46875,190 L 190.78125,179.875 L 187.59375,175.6875 L 184.96875,180.25 L 182,185.40625 L 182,162 z M 220,162 L 249,162 L 249,168.0625 L 226.53125,190 L 220,190 L 220,162 z M 249,177.8125 L 249,190 L 236.5,190 L 249,177.8125 z M 188.40625,188.3125 L 189.6875,190 L 187.4375,190 L 188.40625,188.3125 z M 112,192 L 142,192 L 142,205.53125 L 137.96875,199.125 L 135.3125,194.9375 L 132.25,198.84375 L 115.5625,220 L 112,220 L 112,192 z M 144,192 L 178.21875,192 L 162.15625,220 L 151.09375,220 L 144,208.71875 L 144,192 z M 186.28125,192 L 191.1875,192 L 207.21875,213.125 L 209.59375,216.28125 L 212.4375,213.5 L 218,208.0625 L 218,220 L 182,220 L 182,199.46875 L 186.28125,192 z M 200,192 L 218,192 L 218,198.3125 L 210.40625,205.71875 L 200,192 z M 220,192 L 224.46875,192 L 220,196.34375 L 220,192 z M 234.46875,192 L 249,192 L 249,220 L 220,220 L 220,206.125 L 234.46875,192 z M 180,202.96875 L 180,220 L 170.21875,220 L 180,202.96875 z M 134.65625,207.0625 L 142,218.75 L 142,220 L 124.46875,220 L 134.65625,207.0625 z M 112,222 L 114,222 L 112,224.53125 L 112,222 z M 122.90625,222 L 142,222 L 142,249 L 112,249 L 112,235.84375 L 122.90625,222 z M 144,222 L 144.0625,222 L 154.03125,237.875 L 157.125,242.78125 L 160.03125,237.75 L 169.0625,222 L 180,222 L 180,249 L 144,249 L 144,222 z M 152.34375,222 L 161,222 L 156.875,229.1875 L 152.34375,222 z M 182,222 L 218,222 L 218,249 L 182,249 L 182,222 z M 220,222 L 249,222 L 249,249 L 220,249 L 220,222 z"
     id="path7"
     inkscape:connector-curvature="0"
     style="fill:#000000" />
</svg>
