<?xml version="1.0" encoding="UTF-8" standalone="no"?>
<!-- Generated by IcoMoon.io -->

<svg
   xmlns:dc="http://purl.org/dc/elements/1.1/"
   xmlns:cc="http://creativecommons.org/ns#"
   xmlns:rdf="http://www.w3.org/1999/02/22-rdf-syntax-ns#"
   xmlns:svg="http://www.w3.org/2000/svg"
   xmlns="http://www.w3.org/2000/svg"
   xmlns:sodipodi="http://sodipodi.sourceforge.net/DTD/sodipodi-0.dtd"
   xmlns:inkscape="http://www.inkscape.org/namespaces/inkscape"
   version="1.1"
   width="256"
   height="256"
   viewBox="0 0 256 256"
   id="svg2"
   inkscape:version="0.48.4 r9939"
   sodipodi:docname="dummy.svg">
  <metadata
     id="metadata13">
    <rdf:RDF>
      <cc:Work
         rdf:about="">
        <dc:format>image/svg+xml</dc:format>
        <dc:type
           rdf:resource="http://purl.org/dc/dcmitype/StillImage" />
        <dc:title></dc:title>
      </cc:Work>
    </rdf:RDF>
  </metadata>
  <defs
     id="defs11" />
  <sodipodi:namedview
     pagecolor="#ffffff"
     bordercolor="#666666"
     borderopacity="1"
     objecttolerance="10"
     gridtolerance="10"
     guidetolerance="10"
     inkscape:pageopacity="0"
     inkscape:pageshadow="2"
     inkscape:window-width="1600"
     inkscape:window-height="876"
     id="namedview9"
     showgrid="true"
     inkscape:zoom="0.92187498"
     inkscape:cx="45.025235"
     inkscape:cy="108.35034"
     inkscape:window-x="0"
     inkscape:window-y="24"
     inkscape:window-maximized="1"
     inkscape:current-layer="svg2"
     showguides="true"
     inkscape:guide-bbox="true">
    <inkscape:grid
       type="xygrid"
       id="grid2984"
       empspacing="5"
       visible="true"
       enabled="true"
       snapvisiblegridlinesonly="false" />
    <sodipodi:guide
       orientation="1,0"
       position="128,196"
       id="guide3067" />
    <sodipodi:guide
       orientation="0,1"
       position="112,128"
       id="guide3069" />
    <sodipodi:guide
       orientation="0,1"
       position="140,252"
       id="guide3071" />
    <sodipodi:guide
       orientation="0,1"
       position="134,90"
       id="guide3073" />
    <sodipodi:guide
       orientation="0,1"
       position="134,171"
       id="guide3075" />
    <sodipodi:guide
       orientation="1,0"
       position="47,205.27669"
       id="guide3859" />
    <sodipodi:guide
       orientation="1,0"
       position="209,190.57627"
       id="guide3861" />
    <sodipodi:guide
       orientation="0,1"
       position="140,76"
       id="guide3787" />
  </sodipodi:namedview>
  <g
     id="icomoon-ignore">
    <line
       stroke-width="1"
       x1=""
       y1=""
       x2=""
       y2=""
       stroke="#449FDB"
       opacity=""
       id="line5" />
  </g>
  <path
     d="M 128,4 C 83.264935,4 47,40.264935 47,85 C 47,129.73506 83.264935,166 128,166 C 140.36356,166 152.07962,163.20323 162.5625,158.25 C 162.17906,155.67952 162,152.1405 162,145 C 164,130 172.71325,122.74235 184.75,120.6875 L 185.21875,120.59375 L 185.65625,120.59375 C 190.89621,120.59375 195.33203,122.39416 198.375,125.09375 C 205.12412,113.27091 209,99.588186 209,85 C 209,40.264935 172.73506,4 128,4 z M 185.46875,128.09375 L 185.0625,128.15625 C 174.63851,129.99577 166.30492,140.17415 167.53125,152.4375 L 167.53125,152.46875 L 167.53125,152.5 C 168.10236,157.63996 169.73743,160.78248 170.90625,163.25 C 171.61616,164.7487 172.19011,166.41097 172.6875,168.5 L 156,168.5 L 155.84375,168.5 L 155.6875,168.5 C 150.826,168.84725 146.7309,170.95104 143.96875,173.90625 C 141.2066,176.86146 139.7224,180.495 139.0625,184.09375 C 138.4026,187.6925 138.5316,191.2811 139.34375,194.5 C 139.82427,196.40449 140.56896,198.21664 141.65625,199.8125 C 139.63235,204.8668 140.32218,209.77542 142.125,212.9375 C 142.91548,214.32398 143.8206,215.38078 144.6875,216.28125 C 143.11002,221.25218 143.84483,225.94955 145.375,229.15625 C 146.42164,231.34964 147.63498,232.88937 148.625,233.96875 C 148.74955,242.11435 152.15601,248.17224 156.78125,251.46875 C 161.73366,254.99844 167.29448,255.83993 171.28125,255.875 C 171.36883,255.87577 171.47646,255.90625 171.5625,255.90625 L 171.5625,255.875 C 185.44589,256.66513 196.87395,253.68843 206.46875,250.8125 C 216.13107,247.91633 223.91031,245.34773 230.53125,245.96875 L 235.4375,246.4375 L 235.4375,245.875 C 235.9448,245.95369 236.46997,246 237,246 L 246,246 C 251.54,246 256,241.54 256,236 L 256,187 C 256,181.46 251.54,177 246,177 L 237,177 C 236.49128,177 235.98789,177.0524 235.5,177.125 L 235.5,176.5 L 231,176.5 C 227,176.5 224.25432,176.4189 222.78125,176.03125 C 221.30818,175.6436 220.88978,175.43089 219.84375,173.6875 L 219.84375,173.65625 C 215.57383,166.71763 211.28634,162.39328 208.25,158.65625 C 205.22694,154.93557 203.3446,151.98685 202.46875,146.375 C 201.96307,142.83522 201.45863,138.66175 199.09375,134.8125 C 196.72887,130.96325 191.91555,128.09375 185.84375,128.09375 L 185.46875,128.09375 z M 186.28125,137.15625 C 189.57835,137.24424 190.50828,138.01878 191.4375,139.53125 C 192.42215,141.13394 193.03693,144.16478 193.53125,147.625 L 193.5625,147.65625 L 193.5625,147.6875 C 194.6917,155.02733 197.78634,160.08078 201.25,164.34375 C 204.70902,168.601 208.43121,172.26558 212.15625,178.3125 C 212.16389,178.32523 212.17983,178.33105 212.1875,178.34375 C 214.1428,181.58011 217.20463,183.85977 220.46875,184.71875 C 222.41266,185.2303 224.41479,185.37838 226.5,185.4375 L 226.4375,237.0625 C 218.92228,237.42507 211.65709,239.86428 203.90625,242.1875 C 194.46857,245.01633 184.24566,247.6602 171.8125,246.90625 L 171.6875,246.90625 L 171.5625,246.90625 C 168.96529,246.90625 164.85826,246.17112 162.03125,244.15625 C 159.20424,242.14138 157.05233,239.22617 157.5,232.28125 L 157.625,230 L 155.875,228.53125 C 155.875,228.53125 154.49105,227.35815 153.5,225.28125 C 152.50895,223.20435 151.88723,220.87799 153.9375,217.1875 L 156,213.46875 L 152.40625,211.1875 C 152.40625,211.1875 150.89121,210.14153 149.9375,208.46875 C 148.98379,206.79597 148.2452,205.2572 150.75,201.5 L 153.25,197.75 L 149.5,195.25 C 149.48569,195.24046 148.5316,194.17172 148.0625,192.3125 C 147.5934,190.45328 147.49115,187.9825 147.90625,185.71875 C 148.32135,183.455 149.22465,181.42917 150.53125,180.03125 C 151.83785,178.63333 153.474,177.70275 156.3125,177.5 L 178,177.5 L 182.9375,177.5 L 182.46875,172.59375 C 181.87524,166.0651 180.33743,162.16373 179.03125,159.40625 C 177.73397,156.66754 176.90004,155.36169 176.46875,151.5625 C 176.4666,151.54101 176.4708,151.52146 176.46875,151.5 C 175.74681,143.95847 180.86375,138.31152 186.28125,137.15625 z M 67.0625,157.78125 C 31.720118,177.61788 8,214.17835 8,256 L 149.21875,256 C 145.39283,252.08981 142.80404,246.24842 142.6875,238.875 C 141.54431,237.66927 140.14607,235.95013 138.9375,233.5 C 137.17059,229.91794 136.30346,224.6778 138.125,219.125 C 137.12398,218.11912 136.06903,216.92378 135.15625,215.375 C 133.0745,211.84279 132.28797,206.36468 134.625,200.71875 C 133.36949,198.93609 132.52362,196.90867 131.96875,194.78125 C 131.03095,191.18556 130.863,187.17626 131.625,183.15625 C 131.83753,182.03505 132.15928,180.92247 132.53125,179.8125 C 131.02529,179.88336 129.52351,179.90625 128,179.90625 C 104.80392,179.90625 83.549548,171.6011 67.0625,157.78125 z M 241,225 C 244.31371,225 247,227.68629 247,231 C 247,234.31371 244.31371,237 241,237 C 237.68629,237 235,234.31371 235,231 C 235,227.68629 237.68629,225 241,225 z"
     id="path7"
     inkscape:connector-curvature="0"
     style="fill:#000000" />
</svg>
