<?xml version="1.0" encoding="UTF-8" standalone="no"?>
<!-- Generated by IcoMoon.io -->

<svg
   xmlns:dc="http://purl.org/dc/elements/1.1/"
   xmlns:cc="http://creativecommons.org/ns#"
   xmlns:rdf="http://www.w3.org/1999/02/22-rdf-syntax-ns#"
   xmlns:svg="http://www.w3.org/2000/svg"
   xmlns="http://www.w3.org/2000/svg"
   xmlns:sodipodi="http://sodipodi.sourceforge.net/DTD/sodipodi-0.dtd"
   xmlns:inkscape="http://www.inkscape.org/namespaces/inkscape"
   version="1.1"
   width="256"
   height="256"
   viewBox="0 0 256 256"
   id="svg2"
   inkscape:version="0.48.4 r9939"
   sodipodi:docname="team_leader.svg">
  <metadata
     id="metadata13">
    <rdf:RDF>
      <cc:Work
         rdf:about="">
        <dc:format>image/svg+xml</dc:format>
        <dc:type
           rdf:resource="http://purl.org/dc/dcmitype/StillImage" />
        <dc:title></dc:title>
      </cc:Work>
    </rdf:RDF>
  </metadata>
  <defs
     id="defs11" />
  <sodipodi:namedview
     pagecolor="#ffffff"
     bordercolor="#666666"
     borderopacity="1"
     objecttolerance="10"
     gridtolerance="10"
     guidetolerance="10"
     inkscape:pageopacity="0"
     inkscape:pageshadow="2"
     inkscape:window-width="1366"
     inkscape:window-height="744"
     id="namedview9"
     showgrid="true"
     inkscape:zoom="0.92187498"
     inkscape:cx="-121.56562"
     inkscape:cy="60.590032"
     inkscape:window-x="0"
     inkscape:window-y="24"
     inkscape:window-maximized="1"
     inkscape:current-layer="svg2"
     showguides="true"
     inkscape:guide-bbox="true">
    <inkscape:grid
       type="xygrid"
       id="grid2984"
       empspacing="5"
       visible="true"
       enabled="true"
       snapvisiblegridlinesonly="false" />
    <sodipodi:guide
       orientation="1,0"
       position="128,196"
       id="guide3067" />
    <sodipodi:guide
       orientation="0,1"
       position="214,128"
       id="guide3069" />
    <sodipodi:guide
       orientation="0,1"
       position="140,252"
       id="guide3071" />
    <sodipodi:guide
       orientation="0,1"
       position="226,96"
       id="guide3073" />
    <sodipodi:guide
       orientation="0,1"
       position="134,171"
       id="guide3075" />
    <sodipodi:guide
       orientation="1,0"
       position="47,205.27669"
       id="guide3859" />
    <sodipodi:guide
       orientation="1,0"
       position="210,94"
       id="guide3861" />
    <sodipodi:guide
       orientation="0,1"
       position="140,76"
       id="guide3787" />
    <sodipodi:guide
       orientation="0.70710678,0.70710678"
       position="224,82"
       id="guide3057" />
    <sodipodi:guide
       orientation="-0.70710678,0.70710678"
       position="207,93"
       id="guide3059" />
  </sodipodi:namedview>
  <g
     id="icomoon-ignore">
    <line
       stroke-width="1"
       x1=""
       y1=""
       x2=""
       y2=""
       stroke="#449FDB"
       opacity=""
       id="line5" />
  </g>
  <path
     d="M 128,4 C 83.264935,4 47,40.264935 47,85 C 47,129.73506 83.264935,166 128,166 C 138.98143,166 149.45052,163.80318 159,159.84375 C 158.99264,159.00825 158.96875,158.16386 158.96875,157.34375 C 158.96875,154.38814 159.36074,151.51492 160.0625,148.75 L 139,143 L 147,127 L 163.96875,139.25 C 167.28095,133.61609 172.11611,128.75097 177.96875,124.90625 L 164,110 L 178,101 L 186.3125,120.40625 C 191.38461,118.24696 196.93771,116.77353 202.78125,116.125 C 203.39856,114.64335 203.96886,113.14945 204.5,111.625 L 203,96 L 208.25,96 C 208.7418,92.40279 209,88.731978 209,85 C 209,40.264935 172.73506,4 128,4 z M 207,99 L 207,113 L 213,113 L 213,99 L 207,99 z M 175.5,106.34375 L 170.5,109.65625 L 178.5,121.65625 L 183.5,118.34375 L 175.5,106.34375 z M 244.5,106.34375 L 236.5,118.34375 L 241.5,121.65625 L 249.5,109.65625 L 244.5,106.34375 z M 209.5625,122.4375 C 185.64442,122.4375 165.5625,139.01374 165.5625,160.25 C 165.5625,165.72959 166.90717,170.96792 169.34375,175.65625 C 169.52056,175.99647 169.59121,176.07836 169.5,175.90625 C 172.53358,182.68213 175.82869,187.48512 178.15625,191.8125 C 180.51627,196.20022 182,200.01386 182,206 L 182,207 C 182,212.12241 184.84966,216.52452 189,218.96875 L 189,228.8125 L 187.6875,229.03125 A 2.0002,2.0002 0 1 0 188.3125,232.96875 L 189,232.875 L 189,236.8125 L 187.6875,237.03125 A 2.0002,2.0002 0 1 0 188.3125,240.96875 L 189,240.875 L 189,245.8125 L 187.6875,246.03125 A 2.0002,2.0002 0 1 0 188.3125,249.96875 L 190.15625,249.6875 C 190.61673,250.36829 191.18585,250.93393 191.75,251.40625 C 193.15966,252.58645 194.78626,253.38228 196.625,254.03125 C 200.30248,255.32919 204.91215,256 210,256 C 215.08785,256 219.69752,255.32919 223.375,254.03125 C 225.21374,253.38228 226.84034,252.58645 228.25,251.40625 C 229.65966,250.22605 231,248.35166 231,246 L 231,243.1875 L 232.3125,242.96875 A 2.0002,2.0002 0 0 0 231.8125,239 A 2.0002,2.0002 0 0 0 231.6875,239.03125 L 231,239.125 L 231,234.1875 L 232.3125,233.96875 A 2.0002,2.0002 0 0 0 231.8125,230 A 2.0002,2.0002 0 0 0 231.6875,230.03125 L 231,230.125 L 231,226.1875 L 232.3125,225.96875 A 2.0002,2.0002 0 0 0 231.8125,222 A 2.0002,2.0002 0 0 0 231.6875,222.03125 L 231,222.125 L 231,218.96875 C 235.15034,216.52452 238,212.12241 238,207 L 238,206 C 238,199.72902 239.63428,195.79264 242.125,191.125 C 244.58538,186.51422 247.98542,181.27879 250.6875,173.6875 C 250.70852,173.62844 250.72906,173.5906 250.75,173.53125 C 250.76308,173.50121 250.76826,173.46758 250.78125,173.4375 C 250.79501,173.39823 250.79743,173.41813 250.8125,173.375 L 250.78125,173.375 C 252.52995,169.30786 253.5625,164.87929 253.5625,160.25 C 253.5625,139.01374 233.48058,122.4375 209.5625,122.4375 z M 209.5625,130.4375 C 229.8272,130.4375 245.5625,144.12692 245.5625,160.25 C 245.5625,163.82763 244.79138,167.22537 243.375,170.4375 C 243.33187,170.55795 243.30706,170.56086 243.21875,170.8125 C 240.82713,177.62787 237.79444,182.25531 235.0625,187.375 C 232.33056,192.49469 230,198.23038 230,206 L 230,207 C 230,209.74618 228.22953,211.99365 225.8125,212.75 A 4.0004,4.0004 0 0 0 225.1875,213 L 194.8125,213 A 4.0004,4.0004 0 0 0 194.1875,212.75 C 191.77047,211.99365 190,209.74618 190,207 L 190,206 C 190,198.58879 187.89082,192.99914 185.21875,188.03125 C 182.54668,183.06336 179.42883,178.59646 176.6875,172.40625 A 4.0004,4.0004 0 0 0 176.5625,172.15625 C 176.39329,171.83696 176.36872,171.77627 176.46875,171.96875 C 174.59107,168.35584 173.5625,164.41757 173.5625,160.25 C 173.5625,144.12692 189.2978,130.4375 209.5625,130.4375 z M 148.4375,133.34375 L 145.5625,138.65625 L 158.5625,145.65625 L 161.4375,140.34375 L 148.4375,133.34375 z M 67.0625,157.78125 C 31.720118,177.61788 8,214.17835 8,256 L 188.46875,256 C 186.91929,254.76304 185.30885,253.43676 185,253 L 183,252 C 183,252 181,252 181,249 C 181,247 182.2359,245.34076 183.5,245.25 L 185,245 L 185,243 L 184.21875,243.09375 C 182.98741,243.38187 181,241.21393 181,240 C 181,238 182.7359,236.09076 184,236 L 185,236 L 185,234 L 184,234 C 184,234 181,234 181,231 C 181,226.3125 184.51048,226.03777 184.53125,226.21875 L 185,226 L 185,222 C 180.22711,219.31135 176,214.7284 176,209.09375 L 176,208 C 176,201.41524 174.30778,197.23275 171.59375,192.40625 C 168.92488,187.66004 165.13642,182.38783 161.65625,174.96875 C 161.62363,174.92311 161.53916,174.81212 161.4375,174.625 C 161.32711,174.41636 161.22579,174.18529 161.125,173.96875 C 150.81454,177.8034 139.6473,179.90625 128,179.90625 C 104.80392,179.90625 83.549548,171.6011 67.0625,157.78125 z M 240.53125,216.34375 C 239.74906,217.25453 238.62489,218.08467 237,219 L 237,220 C 239,220 240,221 240,223 C 240,225 239,227 237,227 L 237,230 C 239,230 240,231 240,233 C 239.98999,234.56917 239.29967,235.83442 237,236 L 237,239 C 239,239 240,241 240,242 C 239.98873,243.79939 239,246 237,246 L 237,247.75 C 237,250.33682 235.46486,252.38928 233.84375,253.6875 C 233.17704,254.22142 231.68717,255.10673 230.09375,256 L 248,256 C 248,242.05604 245.35657,228.69313 240.53125,216.34375 z M 197,223 L 223,223 L 223,223.40625 L 197,227.5625 L 197,223 z M 223,227.4375 L 223,231.40625 L 197,235.5625 L 197,231.59375 L 223,227.4375 z M 223,235.4375 L 223,240.40625 L 197,244.5625 L 197,239.59375 L 223,235.4375 z M 223,244.4375 L 223,245.3125 C 222.66622,245.57696 221.87649,246.04911 220.6875,246.46875 C 218.21948,247.33981 214.33015,248 210,248 C 207.73483,248 205.6023,247.82825 203.71875,247.53125 L 223,244.4375 z"
     id="path7"
     inkscape:connector-curvature="0"
     style="fill:#000000" />
</svg>
