<?xml version="1.0" encoding="UTF-8" standalone="no"?>
<!-- Generated by IcoMoon.io -->

<svg
   xmlns:dc="http://purl.org/dc/elements/1.1/"
   xmlns:cc="http://creativecommons.org/ns#"
   xmlns:rdf="http://www.w3.org/1999/02/22-rdf-syntax-ns#"
   xmlns:svg="http://www.w3.org/2000/svg"
   xmlns="http://www.w3.org/2000/svg"
   xmlns:sodipodi="http://sodipodi.sourceforge.net/DTD/sodipodi-0.dtd"
   xmlns:inkscape="http://www.inkscape.org/namespaces/inkscape"
   version="1.1"
   width="256"
   height="256"
   viewBox="0 0 256 256"
   id="svg2"
   inkscape:version="0.48.4 r9939"
   sodipodi:docname="tester.svg">
  <metadata
     id="metadata13">
    <rdf:RDF>
      <cc:Work
         rdf:about="">
        <dc:format>image/svg+xml</dc:format>
        <dc:type
           rdf:resource="http://purl.org/dc/dcmitype/StillImage" />
        <dc:title></dc:title>
      </cc:Work>
    </rdf:RDF>
  </metadata>
  <defs
     id="defs11" />
  <sodipodi:namedview
     pagecolor="#ffffff"
     bordercolor="#666666"
     borderopacity="1"
     objecttolerance="10"
     gridtolerance="10"
     guidetolerance="10"
     inkscape:pageopacity="0"
     inkscape:pageshadow="2"
     inkscape:window-width="1600"
     inkscape:window-height="876"
     id="namedview9"
     showgrid="true"
     inkscape:zoom="1.3037281"
     inkscape:cx="214.26651"
     inkscape:cy="134.12603"
     inkscape:window-x="0"
     inkscape:window-y="24"
     inkscape:window-maximized="1"
     inkscape:current-layer="svg2"
     showguides="true"
     inkscape:guide-bbox="true">
    <inkscape:grid
       type="xygrid"
       id="grid2984"
       empspacing="5"
       visible="true"
       enabled="true"
       snapvisiblegridlinesonly="false" />
    <sodipodi:guide
       orientation="1,0"
       position="132,90"
       id="guide3067" />
    <sodipodi:guide
       orientation="0,1"
       position="183,126"
       id="guide3069" />
    <sodipodi:guide
       orientation="0,1"
       position="140,252"
       id="guide3071" />
    <sodipodi:guide
       orientation="0,1"
       position="184,117"
       id="guide3073" />
    <sodipodi:guide
       orientation="0,1"
       position="134,171"
       id="guide3075" />
    <sodipodi:guide
       orientation="1,0"
       position="47,205.27669"
       id="guide3859" />
    <sodipodi:guide
       orientation="1,0"
       position="231,87"
       id="guide3861" />
    <sodipodi:guide
       orientation="0,1"
       position="140,76"
       id="guide3787" />
    <sodipodi:guide
       orientation="0,1"
       position="171,5"
       id="guide3055" />
    <sodipodi:guide
       orientation="0,1"
       position="200,108"
       id="guide3057" />
    <sodipodi:guide
       orientation="0.70710678,0.70710678"
       position="231,107"
       id="guide3061" />
    <sodipodi:guide
       orientation="-0.70710678,0.70710678"
       position="189,40"
       id="guide3841" />
    <sodipodi:guide
       orientation="-0.70710678,0.70710678"
       position="228,31"
       id="guide3843" />
    <sodipodi:guide
       orientation="0.70710678,0.70710678"
       position="208,7"
       id="guide3845" />
    <sodipodi:guide
       orientation="0.70710678,0.70710678"
       position="190,4"
       id="guide3849" />
  </sodipodi:namedview>
  <g
     id="icomoon-ignore">
    <line
       stroke-width="1"
       x1=""
       y1=""
       x2=""
       y2=""
       stroke="#449FDB"
       opacity=""
       id="line5" />
  </g>
  <path
     style="fill:#000000"
     d="M 128 4 C 83.264935 4 47 40.264935 47 85 C 47 127.57492 79.859003 162.47852 121.59375 165.75 L 121.59375 133.40625 L 121.59375 129 L 126 129 L 142 129 L 142 127.3125 A 8.0008 5.20052 0 0 1 149.875 122.03125 A 8.0008 5.20052 0 0 1 158 127.3125 L 158 129 L 163 129 L 163 127.3125 A 8.0008 5.20052 0 0 1 170.875 122.03125 A 8.0008 5.20052 0 0 1 179 127.3125 L 179 129 L 184 129 L 184 127.3125 A 8.0008 5.20052 0 0 1 191.875 122.03125 A 8.0008 5.20052 0 0 1 198.75 124.4375 C 205.26751 112.76692 209 99.316669 209 85 C 209 40.264935 172.73506 4 128 4 z M 149.9375 125.9375 A 4.0004 4.0004 0 0 0 146 130 L 146 135 L 131 135 L 127 135 L 127 139 L 127 251 L 127 255 L 131 255 L 165.28125 255 L 167.5625 247 L 135 247 L 135 143 L 146 143 L 146 148 A 4.0004 4.0004 0 1 0 154 148 L 154 143 L 167 143 L 167 148 A 4.0004 4.0004 0 1 0 175 148 L 175 143 L 188 143 L 188 148 A 4.0004 4.0004 0 1 0 196 148 L 196 143 L 209 143 L 209 148 A 4.0004 4.0004 0 1 0 217 148 L 217 143 L 219.28125 143 C 220.06884 143.78439 221.22694 144.91436 223.15625 146.84375 C 224.40991 148.09746 225.66063 149.33926 226.59375 150.28125 C 226.76876 150.45792 226.84984 150.56651 227 150.71875 L 227 169 L 235 161 L 235 149.09375 C 235 149.09338 234.77077 147.6896 234.65625 147.4375 C 234.54173 147.1854 234.43602 147.06614 234.375 146.96875 C 234.25296 146.77397 234.20485 146.68786 234.15625 146.625 C 234.05905 146.49929 234.00711 146.4813 233.96875 146.4375 C 233.89204 146.3499 233.86544 146.2752 233.8125 146.21875 C 233.70661 146.10585 233.58341 145.99381 233.4375 145.84375 C 233.14568 145.54364 232.7566 145.13612 232.28125 144.65625 C 231.33054 143.69651 230.07062 142.44567 228.8125 141.1875 C 226.29627 138.67116 223.78125 136.15625 223.78125 136.15625 L 222.59375 135 L 220.9375 135 L 217 135 L 217 130 A 4.0004 4.0004 0 0 0 212.9375 125.9375 A 4.0004 4.0004 0 0 0 209 130 L 209 135 L 196 135 L 196 130 A 4.0004 4.0004 0 0 0 191.9375 125.9375 A 4.0004 4.0004 0 0 0 188 130 L 188 135 L 175 135 L 175 130 A 4.0004 4.0004 0 0 0 170.9375 125.9375 A 4.0004 4.0004 0 0 0 167 130 L 167 135 L 154 135 L 154 130 A 4.0004 4.0004 0 0 0 149.9375 125.9375 z M 150.03125 157 C 145.07045 157 141 161.07045 141 166.03125 L 141 191.96875 C 141 196.92955 145.07045 201 150.03125 201 L 175.96875 201 C 180.92955 201 185 196.92955 185 191.96875 L 185 166.03125 C 185 161.07045 180.92955 157 175.96875 157 L 150.03125 157 z M 67.0625 157.78125 C 31.720118 177.61788 8 214.17835 8 256 L 121.59375 256 L 121.59375 179.6875 C 100.90608 178.30759 82.015367 170.31511 67.0625 157.78125 z M 150.03125 161 L 175.96875 161 C 178.78273 161 181 163.21727 181 166.03125 L 181 191.96875 C 181 194.78273 178.78273 197 175.96875 197 L 150.03125 197 C 147.21727 197 145 194.78273 145 191.96875 L 145 166.03125 C 145 163.21727 147.21727 161 150.03125 161 z M 171.6875 164.75 L 159.15625 183.125 L 151.53125 176.90625 L 146.46875 183.09375 L 157.46875 192.09375 L 160.84375 194.875 L 163.3125 191.25 L 178.3125 169.25 L 171.6875 164.75 z M 235 172.90625 C 233.21067 172.90625 231.43358 173.56642 230.0625 174.9375 L 182 223 L 174 254 L 206 247 L 254.0625 198.9375 C 256.80466 196.19534 256.80466 191.80466 254.0625 189.0625 L 239.9375 174.9375 C 238.56642 173.56642 236.78933 172.90625 235 172.90625 z M 229 189 L 240 200 L 206 234 L 195 223 L 229 189 z M 185 226 L 203 244 L 186 248 C 186 248 186 242 180 242 L 185 226 z M 235 226 L 227 234 L 227 247 L 214 247 L 206 255 L 231 255 L 235 255 L 235 251 L 235 226 z "
     id="path7" />
</svg>
